<?xml version="1.0" encoding="UTF-8"?>
<!-- Generator: Adobe Illustrator 19.2.1, SVG Export Plug-In . SVG Version: 6.00 Build 0)  -->
<svg xmlns="http://www.w3.org/2000/svg" xmlns:xlink="http://www.w3.org/1999/xlink" xmlns:dc="http://purl.org/dc/elements/1.1/" xmlns:cc="http://creativecommons.org/ns#" xmlns:rdf="http://www.w3.org/1999/02/22-rdf-syntax-ns#" version="1.1" id="DESIGNS" x="0px" y="0px" width="32px" height="32px" viewBox="0 0 32 32" style="enable-background:new 0 0 32 32;" xml:space="preserve">
<title property="dc:title">to fly</title><desc property="dc:description">An icon for "fly" from the Stone series on to [icon]. Downloaded from http://www.toicon.com/icons/stone_fly by 49.140.189.92 on 2016-11-07. Licensed CC-BY, see http://toicon.com/license/ for details.</desc>
<path class="stone_een" d="M13.981,31h-3.26c-0.43,0-0.813-0.275-0.949-0.684l-0.456-1.368c-0.175-0.524,0.109-1.09,0.632-1.265  l3.159-1.053L13.981,31z M10.046,11.326l-8.375,1.396C0.707,12.882,0,13.717,0,14.694V19c0,1.105,0.895,2,2,2h9.981L10.046,11.326z   M8.5,4h3.88C11.541,4.733,11,5.798,11,7v3.997L15.001,31h1.993L21,10.974V7c0-1.202-0.541-2.267-1.38-3h3.88  C24.328,4,25,3.328,25,2.5S24.328,1,23.5,1L17,2c0-0.552-0.448-1-1-1s-1,0.448-1,1L8.5,1C7.672,1,7,1.672,7,2.5S7.672,4,8.5,4z   M30.329,12.721l-8.379-1.396L20.014,21H30c1.105,0,2-0.895,2-2v-4.306C32,13.717,31.293,12.882,30.329,12.721z M22.051,27.684  l-3.163-1.054L18.014,31h3.265c0.43,0,0.813-0.275,0.949-0.684l0.456-1.368C22.858,28.425,22.575,27.858,22.051,27.684z" style="fill: #0B1719;"/>
<metadata><work rdf:about=""><format>image/svg+xml</format><type rdf:resource="http://purl.org/dc/dcmitype/StillImage"/><license rdf:resource="http://creativecommons.org/licenses/by/4.0/"/><attributionname>Shannon E Thomas</attributionname><attributionurl>http://www.toicon.com/icons/stone_fly</attributionurl></work></metadata></svg>
